<?xml version="1.0" encoding="UTF-8" standalone="no"?>
<svg
   xmlns:dc="http://purl.org/dc/elements/1.1/"
   xmlns:cc="http://creativecommons.org/ns#"
   xmlns:rdf="http://www.w3.org/1999/02/22-rdf-syntax-ns#"
   xmlns:svg="http://www.w3.org/2000/svg"
   xmlns="http://www.w3.org/2000/svg"
   xmlns:sodipodi="http://sodipodi.sourceforge.net/DTD/sodipodi-0.dtd"
   xmlns:inkscape="http://www.inkscape.org/namespaces/inkscape"
   id="Layer_1_Image"
   data-name="Layer 1 Image"
   viewBox="0 0 2000 1479.17"
   version="1.1"
   sodipodi:docname="logoLight.svg"
   inkscape:version="0.92.3 (2405546, 2018-03-11)">
  <metadata
     id="metadata25">
    <rdf:RDF>
      <cc:Work
         rdf:about="">
        <dc:format>image/svg+xml</dc:format>
        <dc:type
           rdf:resource="http://purl.org/dc/dcmitype/StillImage" />
      </cc:Work>
    </rdf:RDF>
  </metadata>
  <defs
     id="defs23" />
  <sodipodi:namedview
     pagecolor="#ffffff"
     bordercolor="#666666"
     borderopacity="1"
     objecttolerance="10"
     gridtolerance="10"
     guidetolerance="10"
     inkscape:pageopacity="0"
     inkscape:pageshadow="2"
     inkscape:window-width="1920"
     inkscape:window-height="1147"
     id="namedview21"
     showgrid="false"
     inkscape:zoom="0.284"
     inkscape:cx="1337.2843"
     inkscape:cy="685.47651"
     inkscape:window-x="1912"
     inkscape:window-y="-8"
     inkscape:window-maximized="1"
     inkscape:current-layer="Layer_1_Image" />
  <title
     id="title2">goproject</title>
  <path
     d="M0,754.23V687.87c3.28-2.54,2.13-6.27,2.43-9.54,4.22-47,14-92.69,31-136.7,92-238.13,335.9-371.84,584.68-315.16C797.45,267.35,918.75,379,984.74,550.69c3,7.91,4.08,12.08-7.24,12q-121.84-.55-243.67-.06c-7,0-10.88-2.34-14.5-8.29-53.55-88-159.28-133.49-259.85-113.61C356.9,461,292.37,521.83,262.76,621.1,238,704,249,783.69,284.36,861.46c24,52.63,61.27,92.39,111.34,120.42,34.58,19.36,72.29,26.06,111.59,29.9,106.51,10.41,193.22-40.69,232-139.62,5.26-13.44,5.26-13.5-9.19-13.5-85.42,0-170.84-.25-256.26.27-11.84.07-14.63-3.45-14.51-14.84.58-54.53.25-109.06.26-163.59,0-15.65,0-15.67,15.27-15.67H883.23c31.65,0,63.31-.24,95,.16,8.45.11,12.18-2.09,12.93-11.17,1.55-18.62,5.75-36.87,10.14-55,61.67-255.27,315.26-422.36,574.19-378.31,213.05,36.24,376.25,196.77,416.27,409.1,3.22,17.1,3.35,34.65,8.29,51.44v75.51c-3.66,12.84-3.4,26.22-5.47,39.28-18.66,117.35-70.94,217-158.17,297.7q-107,99-250.7,125.6c-17.44,3.21-35,5.89-52.48,8.82h-80.09c-2-2.36-4.79-2-7.39-2.22-34.65-3.14-68.78-9.43-101.72-20.44q-259.49-86.76-339.16-348.8c-1.14-3.74-2.38-7.44-3.73-11.65-1.57,1.43-2.37,1.82-2.59,2.43-.78,2.14-1.39,4.35-2,6.55q-41.86,151.49-161.34,253.59Q733,1194.45,600.6,1219c-17.84,3.3-35.79,5.93-53.69,8.87H466.82c-1.61-2.05-4-2-6.23-2.17-57.44-5.28-112.81-19.09-164.64-44.34Q52.53,1062.82,6.31,795.5C4,781.77,4.58,767.6,0,754.23ZM1494.58,976.68a253.18,253.18,0,0,0,254.15-253.5c.22-140.31-112.46-254.21-252-254.72-140.88-.52-255.52,113.2-255.79,253.72C1240.66,862.27,1354.38,976.36,1494.58,976.68Z"
     transform="translate(0 -213.43)"
     id="path4"
     style="fill:#ffffff" />
  <path
     d="M1294,720c.65-111.29,90.34-199.33,202.31-198.6,108,.71,196.84,91.32,196.3,200.13C1692,831.47,1602,920.89,1492.45,920.22,1382.36,919.54,1293.32,829.72,1294,720Z"
     transform="translate(0 -213.43)"
     style="fill:red"
     id="path6" />
  <path
     d="M316.73,1535c-34.07,29.81-70.8,34.07-115,34.07H158.09v123.5H61.73V1298.66H190.56c40.46,0,88.9,1.6,121.38,28.75,30.88,26.08,46.31,63.88,46.31,104.34C358.25,1467.95,344.41,1510.53,316.73,1535ZM195.35,1387H158.09v93.69h41c33,0,62.82-7.45,62.82-47.38C261.89,1392.35,228.36,1387,195.35,1387Z"
     transform="translate(0 -213.43)"
     id="path8"
     style="fill:#ffffff" />
  <path
     d="M403,1692.6V1298.66H503.58v305.57H620.16v88.37Z"
     transform="translate(0 -213.43)"
     id="path10"
     style="fill:#ffffff" />
  <path
     d="M929.46,1692.6l-19.16-57H773.48l-20.76,57H644.65l158.11-393.94h79.32l156.51,393.94Zm-86.24-271.5h-1.6l-40.46,134.68h82.51Z"
     transform="translate(0 -213.43)"
     id="path12"
     style="fill:#ffffff" />
  <path
     d="M1223.85,1549.39v143.2H1123.24v-143.2l-117.65-250.74h109.13l58.56,158.11,59.09-158.11h108.07Z"
     transform="translate(0 -213.43)"
     id="path14"
     style="fill:#ffffff" />
  <path
     d="M1380.89,1692.6V1298.66h218.8V1387H1477.25v61.22H1596v88.37H1477.25v67.61h122.44v88.37Z"
     transform="translate(0 -213.43)"
     id="path16"
     style="fill:#ffffff" />
  <path
     d="M1850.43,1692.6l-91-127.23h-1.06V1692.6H1662V1298.66h124.57c41.52,0,87.3,1.06,121.38,28.21,32.47,26.08,48.44,66.54,48.44,107.53,0,60.69-35.67,113.92-98,124l107,134.15ZM1795.06,1387h-36.73v109.66H1794c37.8,0,66-16,66-56.43C1860,1401.4,1829.67,1387,1795.06,1387Z"
     transform="translate(0 -213.43)"
     id="path18"
     style="fill:#ffffff" />
</svg>
